<svg width="32" height="32" viewBox="0 0 32 32" fill="none" xmlns="http://www.w3.org/2000/svg">
<path d="M5.01044 0H15.0313C16.3602 0 17.6346 0.532329 18.5742 1.47988C19.5139 2.42743 20.0418 3.71259 20.0418 5.05263V11.7895H18.3716V5.05263C18.3716 4.15927 18.0197 3.3025 17.3933 2.6708C16.7668 2.0391 15.9172 1.68421 15.0313 1.68421H5.01044C4.12454 1.68421 3.27492 2.0391 2.64849 2.6708C2.02207 3.3025 1.67015 4.15927 1.67015 5.05263V26.9474C1.67015 27.8407 2.02207 28.6975 2.64849 29.3292C3.27492 29.9609 4.12454 30.3158 5.01044 30.3158H15.0313C15.9172 30.3158 16.7668 29.9609 17.3933 29.3292C18.0197 28.6975 18.3716 27.8407 18.3716 26.9474V20.2105H20.0418V26.9474C20.0418 28.2874 19.5139 29.5726 18.5742 30.5201C17.6346 31.4677 16.3602 32 15.0313 32H5.01044C3.68159 32 2.40716 31.4677 1.46752 30.5201C0.527884 29.5726 0 28.2874 0 26.9474V5.05263C0 3.71259 0.527884 2.42743 1.46752 1.47988C2.40716 0.532329 3.68159 0 5.01044 0ZM10.0209 15.1579H28.81L23.382 9.68421L24.4843 8.42105L32 16L24.4843 23.5789L23.382 22.3158L28.81 16.8421H10.0209V15.1579Z" fill="black"/>
</svg>
