<svg width="29" height="35" viewBox="0 0 29 35" fill="none" xmlns="http://www.w3.org/2000/svg">
<path d="M24.2857 20C25.4224 20 26.5124 20.4515 27.3162 21.2553C28.1199 22.059 28.5714 23.1491 28.5714 24.2857V25.3071C28.5714 30.4171 22.5571 34.2857 14.2857 34.2857C6.01429 34.2857 0 30.6186 0 25.3071V24.2857C0 23.1491 0.451529 22.059 1.25526 21.2553C2.05898 20.4515 3.14907 20 4.28571 20H24.2857ZM24.2857 22.1429H4.28571C3.75325 22.1428 3.23985 22.3411 2.84556 22.6989C2.45127 23.0568 2.20433 23.5486 2.15286 24.0786L2.14286 24.2857V25.3071C2.14286 29.1271 6.98429 32.1429 14.2857 32.1429C21.3229 32.1429 26.2214 29.1357 26.4229 25.5371L26.4286 25.3071V24.2857C26.4286 23.7532 26.2304 23.2398 25.8725 22.8456C25.5147 22.4513 25.0228 22.2043 24.4929 22.1529L24.2857 22.1429ZM14.2857 0C15.4113 -1.6773e-08 16.5259 0.221706 17.5659 0.652461C18.6058 1.08322 19.5507 1.71458 20.3466 2.51051C21.1426 3.30644 21.7739 4.25135 22.2047 5.29128C22.6354 6.33122 22.8571 7.44581 22.8571 8.57143C22.8571 9.69704 22.6354 10.8116 22.2047 11.8516C21.7739 12.8915 21.1426 13.8364 20.3466 14.6323C19.5507 15.4283 18.6058 16.0596 17.5659 16.4904C16.5259 16.9211 15.4113 17.1429 14.2857 17.1429C12.0124 17.1429 9.83225 16.2398 8.2248 14.6323C6.61734 13.0249 5.71429 10.8447 5.71429 8.57143C5.71429 6.29814 6.61734 4.11797 8.2248 2.51051C9.83225 0.903059 12.0124 3.38746e-08 14.2857 0ZM14.2857 2.14286C12.5808 2.14286 10.9456 2.82015 9.74003 4.02574C8.53444 5.23133 7.85714 6.86647 7.85714 8.57143C7.85714 10.2764 8.53444 11.9115 9.74003 13.1171C10.9456 14.3227 12.5808 15 14.2857 15C15.9907 15 17.6258 14.3227 18.8314 13.1171C20.037 11.9115 20.7143 10.2764 20.7143 8.57143C20.7143 6.86647 20.037 5.23133 18.8314 4.02574C17.6258 2.82015 15.9907 2.14286 14.2857 2.14286Z" fill="#DFDFDF"/>
</svg>
