<svg width="30" height="36" viewBox="0 0 30 36" fill="none" xmlns="http://www.w3.org/2000/svg">
<path d="M24.9999 20.8572C26.1366 20.8572 27.2267 21.3087 28.0304 22.1124C28.8341 22.9162 29.2857 24.0062 29.2857 25.1429V26.1643C29.2857 31.2743 23.2714 35.1429 14.9999 35.1429C6.72852 35.1429 0.714233 31.4757 0.714233 26.1643V25.1429C0.714233 24.0062 1.16576 22.9162 1.96949 22.1124C2.77322 21.3087 3.86331 20.8572 4.99995 20.8572H24.9999ZM24.9999 23H4.99995C4.46748 23 3.95409 23.1983 3.55979 23.5561C3.1655 23.9139 2.91856 24.4058 2.86709 24.9357L2.85709 25.1429V26.1643C2.85709 29.9843 7.69852 33 14.9999 33C22.0371 33 26.9357 29.9929 27.1371 26.3943L27.1428 26.1643V25.1429C27.1428 24.6104 26.9446 24.097 26.5867 23.7027C26.2289 23.3084 25.7371 23.0615 25.2071 23.01L24.9999 23ZM14.9999 0.857178C16.1256 0.857178 17.2402 1.07888 18.2801 1.50964C19.32 1.94039 20.2649 2.57176 21.0609 3.36769C21.8568 4.16362 22.4882 5.10853 22.9189 6.14846C23.3497 7.1884 23.5714 8.30299 23.5714 9.42861C23.5714 10.5542 23.3497 11.6688 22.9189 12.7087C22.4882 13.7487 21.8568 14.6936 21.0609 15.4895C20.2649 16.2855 19.32 16.9168 18.2801 17.3476C17.2402 17.7783 16.1256 18 14.9999 18C12.7267 18 10.5465 17.097 8.93903 15.4895C7.33158 13.8821 6.42852 11.7019 6.42852 9.42861C6.42852 7.15532 7.33158 4.97515 8.93903 3.36769C10.5465 1.76024 12.7267 0.857178 14.9999 0.857178ZM14.9999 3.00003C13.295 3.00003 11.6599 3.67733 10.4543 4.88292C9.24867 6.08851 8.57138 7.72364 8.57138 9.42861C8.57138 11.1336 9.24867 12.7687 10.4543 13.9743C11.6599 15.1799 13.295 15.8572 14.9999 15.8572C16.7049 15.8572 18.34 15.1799 19.5456 13.9743C20.7512 12.7687 21.4285 11.1336 21.4285 9.42861C21.4285 7.72364 20.7512 6.08851 19.5456 4.88292C18.34 3.67733 16.7049 3.00003 14.9999 3.00003Z" fill="black"/>
</svg>
