<?xml version="1.0" standalone="no"?><svg xmlns="http://www.w3.org/2000/svg" viewBox="0 0 1440 320"><path fill="#D24848" fill-opacity="1" d="M0,256L21.8,224C43.6,192,87,128,131,112C174.5,96,218,128,262,138.7C305.5,149,349,139,393,122.7C436.4,107,480,85,524,112C567.3,139,611,213,655,202.7C698.2,192,742,96,785,74.7C829.1,53,873,107,916,154.7C960,203,1004,245,1047,250.7C1090.9,256,1135,224,1178,208C1221.8,192,1265,192,1309,208C1352.7,224,1396,256,1418,272L1440,288L1440,320L1418.2,320C1396.4,320,1353,320,1309,320C1265.5,320,1222,320,1178,320C1134.5,320,1091,320,1047,320C1003.6,320,960,320,916,320C872.7,320,829,320,785,320C741.8,320,698,320,655,320C610.9,320,567,320,524,320C480,320,436,320,393,320C349.1,320,305,320,262,320C218.2,320,175,320,131,320C87.3,320,44,320,22,320L0,320Z"></path></svg>