<svg width="32" height="32" viewBox="0 0 32 32" fill="none" xmlns="http://www.w3.org/2000/svg">
<path d="M1 26C1 26.8841 1.35119 27.7319 1.97631 28.357C2.60143 28.9822 3.44928 29.3334 4.33333 29.3334C5.21739 29.3334 6.06523 28.9822 6.69036 28.357C7.31548 27.7319 7.66667 26.8841 7.66667 26C7.66667 25.116 7.31548 24.2681 6.69036 23.643C6.06523 23.0179 5.21739 22.6667 4.33333 22.6667C3.44928 22.6667 2.60143 23.0179 1.97631 23.643C1.35119 24.2681 1 25.116 1 26ZM24.3333 6.00002C24.3333 6.88408 24.6845 7.73192 25.3096 8.35704C25.9348 8.98216 26.7826 9.33335 27.6667 9.33335C28.5507 9.33335 29.3986 8.98216 30.0237 8.35704C30.6488 7.73192 31 6.88408 31 6.00002C31 5.11597 30.6488 4.26812 30.0237 3.643C29.3986 3.01788 28.5507 2.66669 27.6667 2.66669C26.7826 2.66669 25.9348 3.01788 25.3096 3.643C24.6845 4.26812 24.3333 5.11597 24.3333 6.00002Z" stroke="black" stroke-width="2" stroke-linecap="round" stroke-linejoin="round"/>
<path d="M27.6667 9.33333V17.6667C27.6667 19.8768 26.7887 21.9964 25.2259 23.5592C23.6631 25.122 21.5435 26 19.3334 26H14.3334M14.3334 26L19.3334 21M14.3334 26L19.3334 31M4.33336 22.6667V14.3333C4.33336 12.1232 5.21133 10.0036 6.77414 8.44078C8.33694 6.87797 10.4566 6 12.6667 6H17.6667M17.6667 6L12.6667 1M17.6667 6L12.6667 11" stroke="black" stroke-width="2" stroke-linecap="round" stroke-linejoin="round"/>
</svg>
