<svg width="32" height="32" viewBox="0 0 32 32" fill="none" xmlns="http://www.w3.org/2000/svg">
<path d="M1 7.66667C1 4.52333 1 2.95333 2.09875 1.97667C3.1975 1 4.96375 1 8.5 1H23.5C27.0363 1 28.8025 1 29.9012 1.97667C31 2.95333 31 4.52333 31 7.66667V21C31 25.7133 31 28.0717 29.3519 29.535C27.7056 31 25.0525 31 19.75 31H12.25C6.9475 31 4.29438 31 2.64813 29.535C1 28.0717 1 25.7133 1 21V7.66667Z" stroke="black"/>
<path d="M21.625 26V31M10.375 26V31M10.375 9.33331H21.625M10.375 16H21.625" stroke="black" stroke-linecap="round"/>
</svg>
