<?xml version="1.0" standalone="no"?><svg xmlns="http://www.w3.org/2000/svg" viewBox="0 0 1440 320"><path fill="#D24848" fill-opacity="1" d="M0,128L24,106.7C48,85,96,43,144,32C192,21,240,43,288,85.3C336,128,384,192,432,186.7C480,181,528,107,576,101.3C624,96,672,160,720,197.3C768,235,816,245,864,218.7C912,192,960,128,1008,101.3C1056,75,1104,85,1152,96C1200,107,1248,117,1296,133.3C1344,149,1392,171,1416,181.3L1440,192L1440,320L1416,320C1392,320,1344,320,1296,320C1248,320,1200,320,1152,320C1104,320,1056,320,1008,320C960,320,912,320,864,320C816,320,768,320,720,320C672,320,624,320,576,320C528,320,480,320,432,320C384,320,336,320,288,320C240,320,192,320,144,320C96,320,48,320,24,320L0,320Z"></path></svg>